<mxfile host="app.diagrams.net" modified="2024-05-30T17:34:01.342Z" agent="Mozilla/5.0 (Macintosh; Intel Mac OS X 10.15; rv:123.0) Gecko/20100101 Firefox/123.0" version="24.4.10" etag="v8KO34872nz-4_PziOmB" type="github">
  <diagram name="Page-1" id="xz530Fszib-IB1omMoV6">
    <mxGraphModel>
      <root>
        <mxCell id="0" />
        <mxCell id="1" parent="0" />
      </root>
    </mxGraphModel>
  </diagram>
</mxfile>
